<?xml version="1.0" encoding="utf-8"?>
<!-- Generator: Adobe Illustrator 19.0.1, SVG Export Plug-In . SVG Version: 6.00 Build 0)  -->
<svg version="1.1" xmlns="http://www.w3.org/2000/svg" xmlns:xlink="http://www.w3.org/1999/xlink" x="0px" y="0px"
	 viewBox="0 0 300 300" style="enable-background:new 0 0 300 300;" xml:space="preserve">
<style type="text/css">
	.st0{fill:#666666;}
	.st1{display:none;}
	.st2{display:inline;}
</style>
<g id="house">
	<path class="st0" d="M283.314,140.133L154.95,11.847c-2.722-2.722-7.177-2.683-9.9,0.039L16.686,140.113
		c-2.722,2.722-2.722,6.763,0,9.763H49.89V282.8c0,3.85,3.698,7.077,7.548,7.077h56.452v-81.296c0-3.85,3.397-7.704,7.247-7.704
		h57.918c3.85,0,6.836,3.854,6.836,7.704v81.296h56.863c3.85,0,7.137-3.227,7.137-7.077V149.877h33.423
		C286.036,146.877,286.036,142.855,283.314,140.133z"/>
</g>
<g id="information" class="st1">
	<g class="st2">
		<path class="st0" d="M150,33.014c31.248,0,60.626,12.169,82.722,34.265c22.096,22.096,34.264,51.474,34.264,82.722
			s-12.169,60.626-34.264,82.722c-22.096,22.096-51.474,34.264-82.722,34.264s-60.626-12.169-82.722-34.264
			C45.182,210.626,33.014,181.248,33.014,150s12.169-60.626,34.264-82.722C89.374,45.182,118.752,33.014,150,33.014 M150,13.014
			C74.345,13.014,13.014,74.345,13.014,150S74.345,286.986,150,286.986S286.986,225.655,286.986,150S225.655,13.014,150,13.014
			L150,13.014z"/>
		<g>
			<path class="st0" d="M142.5,193.8L132,72.599c-0.9-9.6,8.7-16.2,18-16.2c9.3,0,18.9,6.6,18,16.2L157.5,193.8H142.5z M150,209.401
				c9.3,0,17.7,7.5,17.7,17.1c0,9.601-8.1,17.101-17.7,17.101s-17.7-7.5-17.7-17.101C132.3,216.901,140.7,209.401,150,209.401z"/>
		</g>
	</g>
</g>
<g id="camera" class="st1">
	<g class="st2">
		<path class="st0" d="M257.466,76.877H219.89v-8.514c0-6.6-5.77-11.486-12.37-11.486H90.425c-6.6,0-11.534,4.886-11.534,11.486
			v8.514H40.479c-19.25,0-34.589,15.099-34.589,34.349v97.123c0,19.25,15.339,35.527,34.589,35.527h216.986
			c19.25,0,35.425-16.277,35.425-35.527v-97.123C292.89,91.976,276.716,76.877,257.466,76.877z M149.39,224.281
			c-35.18,0-63.699-28.519-63.699-63.699c0-35.18,28.519-63.699,63.699-63.699s63.699,28.519,63.699,63.699
			C213.089,195.762,184.57,224.281,149.39,224.281z"/>
		<circle class="st0" cx="149.39" cy="160.582" r="48.555"/>
	</g>
</g>
<g id="gear" class="st1">
	<g class="st2">
		<path class="st0" d="M281.024,124.315l-27.887-2.058c-2.432-9.07-5.989-17.665-10.579-25.613l18.329-21.224
			c2.333-2.333,2.342-6.152,0.008-8.485l-27.835-27.839c-2.333-2.333-6.15-2.333-8.483,0l-21.223,18.313
			c-7.948-4.59-16.543-8.18-25.612-10.612l-2.058-27.936c0-3.3-2.7-5.983-6-5.983h-39.37c-3.3,0-6,2.683-6,5.983l-2.058,27.945
			c-9.07,2.432-17.665,6.018-25.613,10.608L75.42,39.098c-2.333-2.333-6.152-2.335-8.485-0.001L39.096,66.935
			c-2.333,2.333-2.333,6.152,0,8.485l18.313,21.224c-4.59,7.948-8.18,16.543-10.612,25.613l-27.93,2.058c-3.3,0-5.976,2.7-5.976,6
			v39.37c0,3.3,2.676,6,5.976,6l27.942,2.058c2.432,9.07,6.017,17.665,10.606,25.613L39.099,224.58
			c-2.333,2.333-2.335,6.152-0.001,8.485l27.838,27.839c2.333,2.333,6.151,2.333,8.485,0l21.224-18.313
			c7.948,4.59,16.543,8.18,25.613,10.612l2.058,27.813c0,3.3,2.7,5.86,6,5.86h39.37c3.3,0,6-2.56,6-5.86l2.058-27.883
			c9.07-2.432,17.665-5.987,25.613-10.577l21.224,18.33c2.333,2.333,6.152,2.342,8.485,0.009l27.839-27.834
			c2.333-2.333,2.333-6.15,0-8.483l-18.313-21.223c4.59-7.948,8.18-16.542,10.612-25.612l27.82-2.058c3.3,0,5.866-2.7,5.866-6
			v-39.37C286.89,127.015,284.324,124.315,281.024,124.315z M150,199.315c-27.236,0-49.315-22.079-49.315-49.315
			s22.079-49.315,49.315-49.315c27.236,0,49.315,22.079,49.315,49.315S177.236,199.315,150,199.315z"/>
		<circle class="st0" cx="150" cy="150" r="31.507"/>
	</g>
</g>
</svg>
