<?xml version="1.0" encoding="utf-8"?>
<!-- Generator: Adobe Illustrator 19.0.1, SVG Export Plug-In . SVG Version: 6.00 Build 0)  -->
<svg version="1.1" xmlns="http://www.w3.org/2000/svg" xmlns:xlink="http://www.w3.org/1999/xlink" x="0px" y="0px"
	 viewBox="0 0 300 300" style="enable-background:new 0 0 300 300;" xml:space="preserve">
<style type="text/css">
	.st0{fill:#666666;}
</style>
<g id="house">
	<path class="st0" d="M144.779,69.666L77.044,1.937c-1.437-1.437-3.787-1.433-5.224,0.003L4.084,69.665
		c-1.437,1.437-1.437,4.212,0,5.212H21.89v70.004c0,2.032,1.666,3.996,3.698,3.996H54.89v-43.161c0-2.032,2.279-3.839,4.311-3.839
		h30.562c2.032,0,4.127,1.808,4.127,3.839v43.161h29.486c2.032,0,3.514-1.965,3.514-3.996V74.877h17.889
		C146.216,73.877,146.216,71.103,144.779,69.666z"/>
</g>
<g id="information">
	<g>
		<path class="st0" d="M225,11.804c16.88,0,32.75,6.574,44.686,18.51C281.622,42.25,288.196,58.12,288.196,75
			s-6.574,32.75-18.51,44.686c-11.936,11.936-27.806,18.51-44.686,18.51s-32.75-6.574-44.686-18.51
			C168.378,107.75,161.804,91.88,161.804,75s6.574-32.75,18.51-44.686C192.25,18.378,208.12,11.804,225,11.804 M225,1
			c-40.869,0-74,33.131-74,74s33.131,74,74,74s74-33.131,74-74S265.869,1,225,1L225,1z"/>
		<g>
			<path class="st0" d="M220.949,98.661l-5.672-65.473c-0.486-5.186,4.7-8.751,9.724-8.751c5.024,0,10.21,3.565,9.724,8.751
				l-5.672,65.473H220.949z M225,107.088c5.024,0,9.562,4.051,9.562,9.237c0,5.186-4.376,9.238-9.562,9.238
				c-5.186,0-9.562-4.051-9.562-9.238C215.438,111.14,219.976,107.088,225,107.088z"/>
		</g>
	</g>
</g>
<g id="camera">
	<g>
		<path class="st0" d="M131.123,187.877H111.89v-4.793c0-3.403-3.12-6.207-6.523-6.207H44.983c-3.403,0-6.093,2.804-6.093,6.207
			v4.793H19.227c-9.927,0-18.337,7.384-18.337,17.311v50.084c0,9.927,8.41,18.605,18.337,18.605h111.895
			c9.927,0,17.768-8.678,17.768-18.605v-50.084C148.89,195.261,141.049,187.877,131.123,187.877z M75.39,263.488
			c-18.142,0-32.848-14.707-32.848-32.848c0-18.141,14.707-32.848,32.848-32.848s32.848,14.707,32.848,32.848
			C108.238,248.781,93.532,263.488,75.39,263.488z"/>
		<circle class="st0" cx="75.39" cy="230.639" r="25.039"/>
	</g>
</g>
<g id="gear">
	<g>
		<path class="st0" d="M295.722,211.07l-15.063-1.112c-1.314-4.899-3.235-9.542-5.714-13.835l9.901-11.464
			c1.26-1.26,1.265-3.323,0.005-4.583l-15.035-15.037c-1.26-1.26-3.322-1.26-4.582,0l-11.464,9.891
			c-4.293-2.479-8.935-4.418-13.834-5.732l-1.112-15.09c0-1.783-1.458-3.232-3.241-3.232h-21.265c-1.783,0-3.241,1.449-3.241,3.232
			l-1.112,15.094c-4.899,1.314-9.542,3.251-13.835,5.73l-11.464-9.893c-1.26-1.26-3.323-1.261-4.583-0.001l-15.037,15.037
			c-1.26,1.26-1.26,3.323,0,4.583l9.892,11.464c-2.479,4.293-4.418,8.936-5.732,13.835l-15.086,1.112
			c-1.783,0-3.228,1.458-3.228,3.241v21.265c0,1.782,1.445,3.241,3.228,3.241l15.092,1.112c1.314,4.899,3.25,9.542,5.729,13.835
			l-9.893,11.464c-1.26,1.26-1.261,3.323-0.001,4.583l15.037,15.037c1.26,1.26,3.323,1.26,4.583,0l11.464-9.892
			c4.293,2.479,8.936,4.418,13.835,5.732l1.112,15.023c0,1.782,1.458,3.165,3.241,3.165h21.265c1.783,0,3.241-1.383,3.241-3.165
			l1.112-15.061c4.899-1.314,9.542-3.234,13.835-5.713l11.464,9.901c1.26,1.26,3.323,1.265,4.583,0.005l15.037-15.035
			c1.26-1.26,1.26-3.322,0-4.582l-9.892-11.463c2.479-4.293,4.418-8.935,5.732-13.834l15.027-1.112c1.782,0,3.169-1.458,3.169-3.241
			v-21.265C298.89,212.528,297.504,211.07,295.722,211.07z M224.95,251.581c-14.711,0-26.637-11.926-26.637-26.637
			s11.926-26.637,26.637-26.637c14.711,0,26.637,11.926,26.637,26.637S239.661,251.581,224.95,251.581z"/>
		<circle class="st0" cx="224.95" cy="224.943" r="17.018"/>
	</g>
</g>
</svg>
